<svg xmlns="http://www.w3.org/2000/svg" viewBox="0 0 46 28" width="46" height="28" fill="none">
    <rect width="46" height="28" rx="4" fill="#FFFFFF" stroke="#E2E8F0" stroke-width="1"/>
    <g transform="translate(6, 7.5)">
        <path d="M14.2 0.4L9.3 11.8H6.1L3.6 2.5C3.4 1.8 3.3 1.5 2.7 1.2C1.7 0.7 0.8 0.3 0 0L0.1 0.4H5.1C5.8 0.4 6.4 0.9 6.5 1.6L7.8 8.3L11.1 0.4H14.2ZM26.4 8C26.4 5 22.1 4.7 22.2 3.4C22.2 3 22.6 2.5 23.5 2.4C24 2.3 25.3 2.3 26.5 2.8L26.9 0.7C26.3 0.5 25.4 0.3 24.5 0.3C21.5 0.3 19.4 1.9 19.4 4.1C19.4 5.8 20.9 6.7 22 7.2C23.2 7.8 23.6 8.2 23.6 8.7C23.6 9.5 22.6 9.9 21.6 9.9C20.3 9.9 19.6 9.6 18.6 9.2L18.1 11.4C18.8 11.7 20.1 12 21.4 12C24.6 12 26.4 10.4 26.4 8ZM34.1 11.8H36.9L34.5 0.4H32C31.4 0.4 30.9 0.7 30.6 1.3L26.2 11.8H29.3L29.9 10.1H33.6L34.1 11.8ZM30.7 7.9L32.2 3.6L33.2 7.9H30.7ZM18.8 0.4L16.4 11.8H13.5L15.9 0.4H18.8Z" fill="#1434CB"/>
        <path d="M5.1 0.4H0.1L0 0.6C1.9 1 3.7 1.7 5.1 2.8L6.5 1.6C6.4 0.9 5.8 0.4 5.1 0.4Z" fill="#F7B600"/>
    </g>
</svg>
